<svg width="26" height="22" fill="none" xmlns="http://www.w3.org/2000/svg"><path d="M1 6.861C1 1 7.462 1 13 1s12 0 12 5.861c0 6.698-6.462-.837-6.462-.837H7.462S1 13.559 1 6.86zm7.385 1.675s-4.616 4.186-4.616 11.722h18.462c0-7.536-4.616-11.722-4.616-11.722h-9.23z" stroke="#fff" stroke-width="2" stroke-linecap="round" stroke-linejoin="round"/><path d="M13 17.745c2.04 0 3.692-1.5 3.692-3.349 0-1.849-1.653-3.348-3.692-3.348-2.04 0-3.692 1.5-3.692 3.348 0 1.85 1.653 3.35 3.692 3.35z" stroke="#fff" stroke-width="2" stroke-linecap="round" stroke-linejoin="round"/></svg>