<svg width="26" height="20" fill="none" xmlns="http://www.w3.org/2000/svg"><path d="M25 .824s-2.201 1.18-3.425 1.514A4.99 4.99 0 0019.073.947a5.36 5.36 0 00-2.929.158c-.935.324-1.738.9-2.3 1.652A4.145 4.145 0 0013 5.307v.989a12.627 12.627 0 01-5.53-1.123c-1.713-.782-3.186-1.936-4.288-3.36 0 0-4.364 8.906 5.454 12.864C6.39 16.061 3.713 16.754 1 16.657c9.818 4.947 21.818 0 21.818-11.38 0-.275-.03-.55-.087-.822C23.844 3.46 25 .825 25 .825z" stroke="#fff" stroke-width="1.5" stroke-linecap="round" stroke-linejoin="round"/></svg>