<svg width="25" height="19" viewBox="0 0 25 19" fill="none" xmlns="http://www.w3.org/2000/svg">
<path d="M1.25 3.875C1.25 3.27826 1.48705 2.70597 1.90901 2.28401C2.33097 1.86205 2.90326 1.625 3.5 1.625H21.5C22.0967 1.625 22.669 1.86205 23.091 2.28401C23.5129 2.70597 23.75 3.27826 23.75 3.875V15.125C23.75 15.7217 23.5129 16.294 23.091 16.716C22.669 17.1379 22.0967 17.375 21.5 17.375H3.5C2.90326 17.375 2.33097 17.1379 1.90901 16.716C1.48705 16.294 1.25 15.7217 1.25 15.125V3.875Z" stroke="#00985B" stroke-width="2" stroke-linecap="round" stroke-linejoin="round"/>
<path d="M12.5 12.875C14.364 12.875 15.875 11.364 15.875 9.5C15.875 7.63604 14.364 6.125 12.5 6.125C10.636 6.125 9.125 7.63604 9.125 9.5C9.125 11.364 10.636 12.875 12.5 12.875Z" stroke="#00985B" stroke-width="2" stroke-linecap="round" stroke-linejoin="round"/>
<path d="M1.25 6.125C2.44347 6.125 3.58807 5.65089 4.43198 4.80698C5.2759 3.96307 5.75 2.81847 5.75 1.625" stroke="#00985B" stroke-width="2" stroke-linecap="round" stroke-linejoin="round"/>
<path d="M19.25 17.375C19.25 16.1815 19.7241 15.0369 20.568 14.193C21.4119 13.3491 22.5565 12.875 23.75 12.875" stroke="#00985B" stroke-width="2" stroke-linecap="round" stroke-linejoin="round"/>
</svg>
