<svg width="21" height="21" fill="none" xmlns="http://www.w3.org/2000/svg"><path d="M1.313 15.75a3.912 3.912 0 001.312 2.916v1.677a.656.656 0 00.656.657h1.313a.656.656 0 00.656-.657v-.656h10.5v.656a.656.656 0 00.656.657h1.313a.656.656 0 00.656-.657v-1.677a3.915 3.915 0 001.313-2.916v-1.97H1.313v1.969zm19.03-5.25H3.282V2.84a.872.872 0 011.488-.615l.79.79c-.538 1.225-.311 2.424.354 3.27l-.007.007a.656.656 0 000 .926l.464.464a.656.656 0 00.928 0l4.322-4.321a.656.656 0 000-.929l-.464-.464a.656.656 0 00-.928 0l-.006.007c-.846-.665-2.044-.892-3.27-.353l-.79-.79a2.84 2.84 0 00-4.85 2.008v7.66H.656a.656.656 0 00-.656.656v.656a.656.656 0 00.656.657h19.688a.656.656 0 00.656-.657v-.656a.656.656 0 00-.656-.656z" fill="#000"/></svg>