<svg width="21" height="22" fill="none" xmlns="http://www.w3.org/2000/svg"><path d="M13.09 7.916h2.183v1.98H13.09v-1.98zm2.183-3.958H13.09v1.98h2.182v-1.98zm-6.546 9.896h2.182v-1.98H8.727v1.98zm2.182-9.896H8.727v1.98h2.182v-1.98zM8.727 9.895h2.182V7.916H8.727v1.98zM6.545 3.958H4.364v1.98h2.181v-1.98zm0 3.958H4.364v1.98h2.181v-1.98zM12.6 19.791h-1.69v-3.463H8.726v3.463H2.182V1.979h15.272v7.946c.775.06 1.517.277 2.182.594V0H0v21.77h14.084c-.448-.554-.993-1.227-1.484-1.98zm-8.236-1.98h2.181v-1.978H4.364v1.979zm2.181-5.936H4.364v1.979h2.181v-1.98zm14.182 3.463c0 2.573-3.818 6.432-3.818 6.432s-3.818-3.86-3.818-6.432c0-1.88 1.745-3.463 3.818-3.463s3.818 1.583 3.818 3.463zm-2.509.099c0-.594-.654-1.188-1.309-1.188-.654 0-1.309.495-1.309 1.188 0 .594.545 1.187 1.31 1.187.763 0 1.417-.593 1.308-1.187z" fill="#fff"/></svg>