<svg width="25" height="25" fill="none" xmlns="http://www.w3.org/2000/svg"><path d="M10.156 8.75c.15-1.162.4-2.194.718-3.021.266-.693.569-1.212.872-1.545.304-.334.56-.434.754-.434.195 0 .45.1.754.434.304.333.606.852.872 1.545.32.827.57 1.859.718 3.021h-4.688zm-.45-3.47a8 8 0 01.573-1.196A7.519 7.519 0 005.426 8.75h3.47c.158-1.313.438-2.499.812-3.47h-.002zm5.588 0a7.723 7.723 0 00-.573-1.196 7.519 7.519 0 014.853 4.666h-3.47c-.158-1.313-.438-2.499-.811-3.47zm.919 4.72h3.682a7.546 7.546 0 010 2.5h-3.682a21.72 21.72 0 000-2.5zm-.11 3.75h3.47a7.518 7.518 0 01-4.853 4.666c.213-.356.404-.76.571-1.196.375-.971.654-2.157.813-3.47h-.001zm-2.85 4.566c-.304.334-.56.434-.754.434-.195 0-.45-.1-.754-.434-.304-.333-.606-.852-.872-1.545-.32-.827-.57-1.857-.718-3.021h4.688c-.15 1.162-.4 2.194-.718 3.021-.266.693-.569 1.212-.872 1.545zM5.426 13.75a7.519 7.519 0 004.853 4.666 7.726 7.726 0 01-.571-1.196c-.375-.971-.654-2.157-.813-3.47H5.426zm3.36-1.25H5.104a7.55 7.55 0 010-2.5h3.682a21.747 21.747 0 000 2.5zm1.252-2.5a20.44 20.44 0 000 2.5h4.925c.05-.833.05-1.667 0-2.5h-4.925zm-5.663 6.25h.944c.31.445.661.86 1.046 1.24a.625.625 0 01-.115.01H4.863l-.938 3.75h17.15l-.937-3.75H18.75a.624.624 0 01-.115-.01 8.79 8.79 0 001.046-1.24h.944a.625.625 0 01.606.474l1.25 5a.625.625 0 01-.606.776H3.125a.625.625 0 01-.606-.776l1.25-5a.625.625 0 01.606-.474z" fill="#000"/></svg>